# xmcd
# 
# Track frame offsets:
#     150
#     22362
#     40320
#     67360
#     88190
#     103550
#     131937
#     156075
#     177337
# 
# Disc length: 2694
# 
# Revision: 8
# Processed by: cddbd v1.5.2PL0 Copyright (c) Steve Scherf et al.
# Submitted via: fre:ac v1.0.31
# 
DISCID=870a8409
DTITLE=Sade - Diamond Life
DYEAR=1984
DGENRE=Soul
TTITLE0=Smooth Operator
TTITLE1=Your Love Is King
TTITLE2=Hang On To Your Love
TTITLE3=Frankie's First Affair
TTITLE4=When Am I Going To Make A Living
TTITLE5=Cherry Pie
TTITLE6=Sally
TTITLE7=I Will Be Your Friend
TTITLE8=Why Can't We Live Together
EXTD=CDEPC 26044 YEAR: 1984
EXTT0=
EXTT1=
EXTT2=
EXTT3=
EXTT4=
EXTT5=
EXTT6=
EXTT7=
EXTT8=
PLAYORDER=
